<svg xmlns="http://www.w3.org/2000/svg" viewBox="0 0 600 600">
  <defs>
    <radialGradient id="bgG" cx="50%" cy="40%" r="65%">
      <stop offset="0%" stop-color="#0D1E33"/>
      <stop offset="100%" stop-color="#060D1A"/>
    </radialGradient>
    <radialGradient id="bodyG" cx="42%" cy="32%" r="62%">
      <stop offset="0%" stop-color="#1A4A6B"/>
      <stop offset="100%" stop-color="#060D1A"/>
    </radialGradient>
    <radialGradient id="coatG" cx="38%" cy="25%" r="65%">
      <stop offset="0%" stop-color="#FFFFFF"/>
      <stop offset="100%" stop-color="#C8D8E8"/>
    </radialGradient>
    <radialGradient id="eyeG" cx="38%" cy="30%" r="58%">
      <stop offset="0%" stop-color="#FFFFFF"/>
      <stop offset="55%" stop-color="#00C8FF"/>
      <stop offset="100%" stop-color="#0066AA"/>
    </radialGradient>
    <radialGradient id="shG" cx="50%" cy="28%" r="70%">
      <stop offset="0%" stop-color="#F5C842"/>
      <stop offset="100%" stop-color="#C47800"/>
    </radialGradient>
    <radialGradient id="stetG" cx="40%" cy="30%" r="65%">
      <stop offset="0%" stop-color="#888"/>
      <stop offset="100%" stop-color="#333"/>
    </radialGradient>
    
      
      
    
    
      
      
    
    
      
    
    
      
    
  </defs>
  
  <rect width="600" height="600" rx="40" fill="url(#bgG)"/>
  
  
  <rect width="600" height="600" rx="40" fill="url(#grid)"/>
  <circle cx="0" cy="0" r="130" fill="none" stroke="#00C8FF" stroke-width="1" opacity="0.06"/>
  <circle cx="600" cy="600" r="160" fill="none" stroke="#F5A623" stroke-width="1" opacity="0.05"/>

  
  <g transform="translate(100,20) scale(0.95)">
    
    <ellipse cx="200" cy="476" rx="88" ry="13" fill="#00C8FF" opacity="0.1"/>
    
    <rect x="140" y="395" width="36" height="50" rx="18" fill="url(#bodyG)" stroke="#00C8FF" stroke-width="2"/>
    <ellipse cx="144" cy="447" rx="26" ry="11" fill="#0A1E30" stroke="#00C8FF" stroke-width="1.5"/>
    <rect x="224" y="395" width="36" height="50" rx="18" fill="url(#bodyG)" stroke="#00C8FF" stroke-width="2"/>
    <ellipse cx="256" cy="447" rx="26" ry="11" fill="#0A1E30" stroke="#00C8FF" stroke-width="1.5"/>
    
    <path d="M128 388 Q140 404 158 406 Q200 412 242 406 Q260 404 272 388" fill="url(#coatG)" stroke="#C8D0D8" stroke-width="1.2" opacity="0.9"/>
    
    <path d="M125 255 Q74 265 68 308 Q64 334 84 340 Q104 346 114 320 Q120 300 128 278" fill="url(#bodyG)" stroke="#00C8FF" stroke-width="2.5"/>
    <circle cx="78" cy="346" r="21" fill="url(#bodyG)" stroke="#00C8FF" stroke-width="2"/>
    <circle cx="60" cy="334" r="9" fill="#0D2535" stroke="#00C8FF" stroke-width="1.5"/>
    <circle cx="58" cy="349" r="9" fill="#0D2535" stroke="#00C8FF" stroke-width="1.5"/>
    <circle cx="62" cy="363" r="9" fill="#0D2535" stroke="#00C8FF" stroke-width="1.5"/>
    <path d="M120 256 Q72 266 66 308 Q62 334 80 340 Q90 344 102 324" fill="url(#coatG)" stroke="#D0D8E0" stroke-width="1.5" opacity="0.92"/>
    <path d="M275 255 Q326 262 336 298 Q342 322 324 330 Q306 336 296 312 Q288 292 276 272" fill="url(#bodyG)" stroke="#00C8FF" stroke-width="2.5"/>
    <circle cx="330" cy="336" r="21" fill="url(#bodyG)" stroke="#00C8FF" stroke-width="2"/>
    <circle cx="348" cy="324" r="9" fill="#0D2535" stroke="#00C8FF" stroke-width="1.5"/>
    <circle cx="350" cy="339" r="9" fill="#0D2535" stroke="#00C8FF" stroke-width="1.5"/>
    <circle cx="346" cy="354" r="9" fill="#0D2535" stroke="#00C8FF" stroke-width="1.5"/>
    <path d="M280 256 Q328 264 338 300 Q344 324 326 332 Q314 336 304 316" fill="url(#coatG)" stroke="#D0D8E0" stroke-width="1.5" opacity="0.92"/>
    
    <rect x="110" y="188" width="180" height="215" rx="60" fill="url(#bodyG)" stroke="#00C8FF" stroke-width="2.5"/>
    <path d="M112 230 Q112 390 140 400 Q170 410 200 410 Q230 410 260 400 Q288 390 288 230 L270 215 Q250 228 200 228 Q150 228 130 215 Z" fill="url(#coatG)" stroke="#C8D0D8" stroke-width="1.5" opacity="0.96"/>
    <path d="M130 215 Q150 228 170 248 Q175 268 172 285 L140 265 Q118 245 112 230 Z" fill="url(#coatG)" stroke="#C8D0D8" stroke-width="1" opacity="0.98"/>
    <path d="M270 215 Q250 228 230 248 Q225 268 228 285 L260 265 Q282 245 288 230 Z" fill="url(#coatG)" stroke="#C8D0D8" stroke-width="1" opacity="0.98"/>
    <line x1="200" y1="290" x2="200" y2="398" stroke="#CCC" stroke-width="1" stroke-dasharray="3,8"/>
    <circle cx="200" cy="305" r="4" fill="white" stroke="#B0B8C0" stroke-width="1.5"/>
    <circle cx="200" cy="328" r="4" fill="white" stroke="#B0B8C0" stroke-width="1.5"/>
    <circle cx="200" cy="351" r="4" fill="white" stroke="#B0B8C0" stroke-width="1.5"/>
    <rect x="125" y="268" width="38" height="28" rx="4" fill="none" stroke="#B8C4D0" stroke-width="1.2"/>
    <rect x="133" y="258" width="4" height="18" rx="2" fill="#00C8FF" opacity="0.9"/>
    <rect x="140" y="258" width="4" height="15" rx="2" fill="#F5A623" opacity="0.9"/>
    
    <rect x="150" y="300" width="100" height="72" rx="12" fill="#091520" stroke="#00C8FF" stroke-width="1.5"/>
    <polyline points="155,345 175,345 182,320 189,360 196,310 203,360 210,345 242,345" fill="none" stroke="#2ECC71" stroke-width="2.5" stroke-linecap="round" stroke-linejoin="round"/>
    <circle cx="242" cy="345" r="4" fill="#2ECC71"/>
    
    <path d="M168 242 Q160 225 148 208 Q138 195 130 185" fill="none" stroke="#666" stroke-width="5" stroke-linecap="round"/>
    <path d="M232 242 Q240 225 252 208 Q262 195 270 185" fill="none" stroke="#666" stroke-width="5" stroke-linecap="round"/>
    <circle cx="200" cy="246" r="7" fill="#555" stroke="#888" stroke-width="1.5"/>
    <path d="M200 253 Q200 310 185 348 Q175 368 168 378" fill="none" stroke="#666" stroke-width="5" stroke-linecap="round"/>
    <circle cx="162" cy="385" r="18" fill="url(#stetG)" stroke="#999" stroke-width="2"/>
    <circle cx="162" cy="385" r="11" fill="#222" stroke="#666" stroke-width="1.5"/>
    <circle cx="162" cy="385" r="5" fill="#444"/>
    <ellipse cx="128" cy="182" rx="7" ry="5" fill="#888" stroke="#aaa" stroke-width="1" transform="rotate(-35,128,182)"/>
    <ellipse cx="272" cy="182" rx="7" ry="5" fill="#888" stroke="#aaa" stroke-width="1" transform="rotate(35,272,182)"/>
    
    <rect x="228" y="272" width="52" height="32" rx="4" fill="white" stroke="#B0B8C0" stroke-width="1"/>
    <rect x="228" y="272" width="52" height="10" rx="3" fill="#00C8FF"/>
    <text x="254" y="280" font-family="Arial Black" font-size="6.5" fill="white" text-anchor="middle" font-weight="900">DR. STEP</text>
    <text x="254" y="292" font-family="Arial" font-size="6" fill="#333" text-anchor="middle">CyberStep MD</text>
    <text x="254" y="300" font-family="Arial" font-size="5.5" fill="#666" text-anchor="middle">Security Health</text>
    
    <line x1="200" y1="56" x2="200" y2="26" stroke="#00C8FF" stroke-width="3" stroke-linecap="round"/>
    <circle cx="200" cy="18" r="10" fill="#F5A623" stroke="#FFF8E0" stroke-width="1.5"/>
    <circle cx="200" cy="18" r="16" fill="none" stroke="#F5A623" stroke-width="1.5" opacity="0.35"/>
    
    <circle cx="96" cy="160" r="14" fill="#0A1E30" stroke="#00C8FF" stroke-width="2"/>
    <circle cx="96" cy="160" r="7" fill="#00C8FF" opacity="0.6"/>
    <circle cx="304" cy="160" r="14" fill="#0A1E30" stroke="#00C8FF" stroke-width="2"/>
    <circle cx="304" cy="160" r="7" fill="#00C8FF" opacity="0.6"/>
    
    <circle cx="200" cy="165" r="106" fill="url(#bodyG)" stroke="#00C8FF" stroke-width="2.5"/>
    
    <path d="M134 124 Q163 112 191 122" fill="none" stroke="#00C8FF" stroke-width="4" stroke-linecap="round"/>
    <path d="M209 122 Q237 112 266 124" fill="none" stroke="#00C8FF" stroke-width="4" stroke-linecap="round"/>
    
    <circle cx="163" cy="158" r="33" fill="#081828" stroke="#00C8FF" stroke-width="2"/>
    <circle cx="237" cy="158" r="33" fill="#081828" stroke="#00C8FF" stroke-width="2"/>
    <circle cx="163" cy="158" r="22" fill="url(#eyeG)"/>
    <circle cx="237" cy="158" r="22" fill="url(#eyeG)"/>
    <circle cx="163" cy="156" r="10" fill="#002A3D"/>
    <circle cx="237" cy="156" r="10" fill="#002A3D"/>
    <circle cx="168" cy="150" r="4.5" fill="white" opacity="0.92"/>
    <circle cx="242" cy="150" r="4.5" fill="white" opacity="0.92"/>
    
    <path d="M165 198 Q200 220 235 198" fill="none" stroke="#00C8FF" stroke-width="4.5" stroke-linecap="round"/>
    <ellipse cx="142" cy="192" rx="14" ry="8" fill="#F5A623" opacity="0.2"/>
    <ellipse cx="258" cy="192" rx="14" ry="8" fill="#F5A623" opacity="0.2"/>
  </g>

  
  <text x="300" y="530" font-family="Arial Black,Arial" font-size="26" font-weight="900" fill="#00C8FF" text-anchor="middle" letter-spacing="1">Dr. Step</text>
  <text x="300" y="555" font-family="Arial,sans-serif" font-size="12" fill="#8896A8" text-anchor="middle" letter-spacing="2">CyberStep Security Health</text>
  <line x1="220" y1="562" x2="380" y2="562" stroke="#00C8FF" stroke-width="1" opacity="0.3"/>
</svg>