<svg width="512" height="512" viewBox="0 0 512 512" fill="none" xmlns="http://www.w3.org/2000/svg">
  <defs>
    <linearGradient id="grad" x1="0" y1="0" x2="512" y2="512" gradientUnits="userSpaceOnUse">
      <stop offset="0%" stop-color="#00C8FF"/>
      <stop offset="100%" stop-color="#0080FF"/>
    </linearGradient>
  </defs>
  <rect width="512" height="512" rx="96" fill="url(#grad)"/>
  <path d="M256 96C167.6 96 96 167.6 96 256s71.6 160 160 160 160-71.6 160-160S344.4 96 256 96zm0 280c-66.3 0-120-53.7-120-120s53.7-120 120-120 120 53.7 120 120-53.7 120-120 120z" fill="white" opacity="0.9"/>
  <circle cx="256" cy="256" r="52" fill="white"/>
  <path d="M256 168v-40M256 384v-40M168 256h-40M384 256h-40" stroke="white" stroke-width="16" stroke-linecap="round" opacity="0.7"/>
</svg>
