<svg width="280" height="64" viewBox="0 0 280 64" fill="none" xmlns="http://www.w3.org/2000/svg">
  <defs>
    <linearGradient id="grad-wm-lt" x1="0" y1="0" x2="48" y2="48" gradientUnits="userSpaceOnUse">
      <stop offset="0%" stop-color="#00C8FF"/>
      <stop offset="100%" stop-color="#0080FF"/>
    </linearGradient>
    <clipPath id="shield-clip-wm-lt">
      <path d="M24 3 L42 10 L42 26 C42 35 34 42 24 46 C14 42 6 35 6 26 L6 10 Z" transform="translate(8,8)"/>
    </clipPath>
  </defs>

  <!-- Light bg shield -->
  <path d="M24 3 L42 10 L42 26 C42 35 34 42 24 46 C14 42 6 35 6 26 L6 10 Z"
        transform="translate(8,8)"
        fill="#E8F6FF" stroke="url(#grad-wm-lt)" stroke-width="1.5"/>

  <path d="M24 6 L39 12 L39 26 C39 33.5 32.5 40 24 43.5 C15.5 40 9 33.5 9 26 L9 12 Z"
        transform="translate(8,8)"
        fill="none" stroke="#00C8FF" stroke-width="0.5" stroke-opacity="0.4"/>

  <g clip-path="url(#shield-clip-wm-lt)">
    <path d="M 17 30 L 17 26 L 22 26 L 22 22 L 17 22 L 17 18 L 31 18 L 31 22 L 26 22 L 26 26 L 31 26 L 31 30 Z"
          transform="translate(8,8)"
          fill="url(#grad-wm-lt)" fill-opacity="0.95"/>
    <circle cx="25" cy="26" r="2" fill="#00C8FF"/>
    <circle cx="39" cy="26" r="2" fill="#00C8FF"/>
    <circle cx="25" cy="38" r="2" fill="#00C8FF"/>
    <circle cx="39" cy="38" r="2" fill="#00C8FF"/>
  </g>

  <!-- Dark text for light background -->
  <text font-family="Inter, -apple-system, BlinkMacSystemFont, 'Segoe UI', system-ui, sans-serif"
        font-weight="800" font-size="26" letter-spacing="-0.5">
    <tspan x="72" y="38" fill="#060D1A">Cyber</tspan><tspan fill="#0080CC">Step</tspan>
  </text>
  <text x="72" y="53"
        font-family="Inter, -apple-system, BlinkMacSystemFont, 'Segoe UI', system-ui, sans-serif"
        font-weight="500" font-size="10" letter-spacing="3"
        fill="#4A5568">.IO</text>
</svg>
