<svg xmlns="http://www.w3.org/2000/svg" width="48" height="48" viewBox="0 0 48 48" fill="none">
  <defs>
    <linearGradient id="grad-icon" x1="0" y1="0" x2="48" y2="48" gradientUnits="userSpaceOnUse">
      <stop offset="0%" stop-color="#00C8FF"/>
      <stop offset="100%" stop-color="#0080FF"/>
    </linearGradient>
    
      
      
    
    <clipPath id="shield-clip-icon">
      <path d="M24 3 L42 10 L42 26 C42 35 34 42 24 46 C14 42 6 35 6 26 L6 10 Z"/>
    </clipPath>
  </defs>

  
  <path d="M24 3 L42 10 L42 26 C42 35 34 42 24 46 C14 42 6 35 6 26 L6 10 Z" fill="#0A1628" stroke="url(#grad-icon)" stroke-width="1.5"/>

  
  <path d="M24 6 L39 12 L39 26 C39 33.5 32.5 40 24 43.5 C15.5 40 9 33.5 9 26 L9 12 Z" fill="none" stroke="#00C8FF" stroke-width="0.5" stroke-opacity="0.3"/>

  
  <g clip-path="url(#shield-clip-icon)">
    <path d="M 17 30 L 17 26 L 22 26 L 22 22 L 17 22 L 17 18 L 31 18 L 31 22 L 26 22 L 26 26 L 31 26 L 31 30 Z" fill="url(#grad-icon)" fill-opacity="0.9"/>
    <circle cx="17" cy="18" r="2" fill="#00C8FF"/>
    <circle cx="31" cy="18" r="2" fill="#00C8FF"/>
    <circle cx="17" cy="30" r="2" fill="#00C8FF"/>
    <circle cx="31" cy="30" r="2" fill="#00C8FF"/>
    <line x1="10" y1="22" x2="14" y2="22" stroke="#00C8FF" stroke-width="1" stroke-opacity="0.4"/>
    <line x1="34" y1="26" x2="38" y2="26" stroke="#00C8FF" stroke-width="1" stroke-opacity="0.4"/>
  </g>

  
  <path d="M24 44 C16 41 8 35 8 27" stroke="#00C8FF" stroke-width="0.8" stroke-opacity="0.2" fill="none" stroke-linecap="round"/>
</svg>