<svg xmlns="http://www.w3.org/2000/svg" viewBox="0 0 420 310" width="840" height="620">
  <defs>
    <radialGradient id="bg" cx="80%" cy="20%" r="60%">
      <stop offset="0%" stop-color="#0A1828"/>
      <stop offset="100%" stop-color="#060D1A"/>
    </radialGradient>
    <linearGradient id="barG" x1="0%" y1="0%" x2="100%" y2="0%">
      <stop offset="0%" stop-color="#E03A3A"/>
      <stop offset="50%" stop-color="#F5A623"/>
      <stop offset="100%" stop-color="#2ECC71"/>
    </linearGradient>
    
      
      
    
    
      
    
  </defs>

  
  <rect width="420" height="310" rx="20" fill="url(#bg)"/>
  <rect width="420" height="310" rx="20" fill="none" stroke="#1A3050" stroke-width="1"/>
  
  <circle cx="380" cy="0" r="110" fill="rgb(245,166,35)" opacity="0.05"/>

  
  <rect x="0" y="0" width="420" height="58" rx="20" fill="#091520"/>
  <rect x="0" y="38" width="420" height="22" fill="#091520"/>
  <rect x="0" y="58" width="420" height="1" fill="#1A3050"/>

  
  <rect x="16" y="10" width="38" height="38" rx="9" fill="#0A2540" stroke="#F5A623" stroke-width="1.5"/>
  
  <path d="M35 17 Q44 20 44 20 L44 32 Q44 40 35 44 Q26 40 26 32 L26 20 Q26 20 35 17Z" fill="#F5A623" opacity="0.85"/>
  <text x="35" y="36" font-family="Arial Black,Arial" font-size="13" font-weight="900" fill="#060D1A" text-anchor="middle">S</text>

  <text x="64" y="28" font-family="Arial Black,Arial" font-size="13" font-weight="800" fill="#E8EDF5">Örnek Teknoloji A.Ş.</text>
  <text x="64" y="44" font-family="Arial,sans-serif" font-size="10" fill="#8896A8">ornek.com.tr</text>

  <text x="404" y="26" font-family="Arial,sans-serif" font-size="10" fill="#8896A8" text-anchor="end">Haziran 2026</text>
  <text x="404" y="42" font-family="Arial Black,Arial" font-size="10.5" font-weight="700" fill="#00C8FF" text-anchor="end">Güncellendi</text>

  
  <circle cx="86" cy="138" r="54" fill="none" stroke="#1A3050" stroke-width="8"/>
  <circle cx="86" cy="138" r="54" fill="none" stroke="#F5A623" stroke-width="8" stroke-linecap="round" stroke-dasharray="251.2" stroke-dashoffset="82.9" transform="rotate(-90 86 138)"/>
  
  <circle cx="86" cy="138" r="43" fill="#060D1A"/>
  <text x="86" y="131" font-family="Arial Black,Arial" font-size="30" font-weight="900" fill="#F5A623" text-anchor="middle">67</text>
  <text x="86" y="151" font-family="Arial Black,Arial" font-size="14" font-weight="700" fill="#F5A623" text-anchor="middle">B</text>

  
  <text x="162" y="84" font-family="Arial,sans-serif" font-size="9" fill="#8896A8" letter-spacing="2">GÜVENLİK SKORU</text>
  <text x="162" y="104" font-family="Arial Black,Arial" font-size="18" font-weight="900" fill="#E8EDF5">Orta Seviye Risk</text>
  <text x="162" y="122" font-family="Arial Black,Arial" font-size="15" font-weight="700" fill="#E8EDF5">Mevcut</text>

  
  <rect x="162" y="132" width="235" height="22" rx="6" fill="#0D2035"/>
  <text x="172" y="148" font-family="Arial,sans-serif" font-size="10.5" fill="#8896A8">Sektör: <tspan fill="#00C8FF" font-weight="700">54</tspan>  ·  Sizin: <tspan fill="#F5A623" font-weight="800">67</tspan>  <tspan fill="#2ECC71" font-weight="700">+13</tspan></text>

  
  <rect x="162" y="165" width="235" height="7" rx="3.5" fill="#0D2035"/>
  <rect x="162" y="165" width="158" height="7" rx="3.5" fill="url(#barG)"/>
  <circle cx="322" cy="168.5" r="7" fill="#F5A623" stroke="#060D1A" stroke-width="2.5"/>

  <text x="162" y="183" font-family="Arial,sans-serif" font-size="8" fill="#4A6080">F·0</text>
  <text x="212" y="183" font-family="Arial,sans-serif" font-size="8" fill="#4A6080">D·20</text>
  <text x="263" y="183" font-family="Arial,sans-serif" font-size="8" fill="#4A6080">C·40</text>
  <text x="314" y="183" font-family="Arial,sans-serif" font-size="8" fill="#4A6080">B·60</text>
  <text x="363" y="183" font-family="Arial,sans-serif" font-size="8" fill="#4A6080">A·80</text>

  
  <rect x="0" y="200" width="420" height="1" fill="#1A3050"/>
  
  <rect x="1" y="201" width="138" height="66" fill="#060D1A"/>
  <rect x="139" y="201" width="1" height="66" fill="#1A3050"/>
  <rect x="140" y="201" width="140" height="66" fill="#060D1A"/>
  <rect x="280" y="201" width="1" height="66" fill="#1A3050"/>
  <rect x="281" y="201" width="138" height="66" fill="#060D1A"/>

  
  <circle cx="69" cy="221" r="10" fill="#E03A3A" opacity="0.18"/>
  <circle cx="69" cy="221" r="5" fill="#E03A3A"/>
  <text x="70" y="243" font-family="Arial Black,Arial" font-size="20" font-weight="900" fill="#E03A3A" text-anchor="middle">2</text>
  <text x="70" y="259" font-family="Arial,sans-serif" font-size="8.5" fill="#8896A8" text-anchor="middle" letter-spacing="0.5">KRİTİK</text>

  
  <circle cx="210" cy="221" r="10" fill="#F5A623" opacity="0.18"/>
  <circle cx="210" cy="221" r="5" fill="#F5A623"/>
  <text x="210" y="243" font-family="Arial Black,Arial" font-size="20" font-weight="900" fill="#F5A623" text-anchor="middle">5</text>
  <text x="210" y="259" font-family="Arial,sans-serif" font-size="8.5" fill="#8896A8" text-anchor="middle" letter-spacing="0.5">YÜKSEK</text>

  
  <circle cx="350" cy="221" r="10" fill="#F0C040" opacity="0.18"/>
  <circle cx="350" cy="221" r="5" fill="#F0C040"/>
  <text x="350" y="243" font-family="Arial Black,Arial" font-size="20" font-weight="900" fill="#F0C040" text-anchor="middle">8</text>
  <text x="350" y="259" font-family="Arial,sans-serif" font-size="8.5" fill="#8896A8" text-anchor="middle" letter-spacing="0.5">ORTA</text>

  
  <rect x="0" y="267" width="420" height="1" fill="#1A3050"/>
  <rect x="0" y="268" width="420" height="42" fill="#04090F"/>
  <rect x="0" y="290" width="420" height="20" rx="20" fill="#04090F"/>
  <text x="18" y="288" font-family="Arial,sans-serif" font-size="9.5" fill="#4A6080" letter-spacing="1">CYBERSTEP.IO  ·  POWERED BY STEP AI</text>
  
  <rect x="240" y="275" width="162" height="26" rx="13" fill="rgba(245,166,35,0.12)" stroke="rgba(245,166,35,0.4)" stroke-width="1"/>
  <text x="321" y="293" font-family="Arial Black,Arial" font-size="9.5" font-weight="700" fill="#F5A623" text-anchor="middle" letter-spacing="0.5">B  ·  GELİŞTİRİLEBİLİR</text>
</svg>