<svg width="512" height="512" viewBox="0 0 512 512" fill="none" xmlns="http://www.w3.org/2000/svg">
  <defs>
    <linearGradient id="grad" x1="0" y1="0" x2="512" y2="512" gradientUnits="userSpaceOnUse">
      <stop offset="0%" stop-color="#00C8FF"/>
      <stop offset="100%" stop-color="#0080FF"/>
    </linearGradient>
    <filter id="glow">
      <feGaussianBlur stdDeviation="12" result="blur"/>
      <feMerge><feMergeNode in="blur"/><feMergeNode in="SourceGraphic"/></feMerge>
    </filter>
  </defs>
  <rect width="512" height="512" rx="96" fill="#060D1A"/>
  <path d="M256 48 L432 112 L432 276 C432 372 352 444 256 480 C160 444 80 372 80 276 L80 112 Z"
        fill="#0A1628" stroke="url(#grad)" stroke-width="12"/>
  <path d="M256 76 L404 132 L404 276 C404 356 336 420 256 452 C176 420 108 356 108 276 L108 132 Z"
        fill="none" stroke="#00C8FF" stroke-width="4" stroke-opacity="0.25"/>
  <g filter="url(#glow)">
    <path d="M 181 320 L 181 278 L 234 278 L 234 235 L 181 235 L 181 192 L 331 192 L 331 235 L 278 235 L 278 278 L 331 278 L 331 320 Z"
          fill="url(#grad)" fill-opacity="0.95"/>
    <circle cx="181" cy="192" r="18" fill="#00C8FF"/>
    <circle cx="331" cy="192" r="18" fill="#00C8FF"/>
    <circle cx="181" cy="320" r="18" fill="#00C8FF"/>
    <circle cx="331" cy="320" r="18" fill="#00C8FF"/>
    <line x1="108" y1="235" x2="156" y2="235" stroke="#00C8FF" stroke-width="8" stroke-opacity="0.4" stroke-linecap="round"/>
    <line x1="356" y1="278" x2="404" y2="278" stroke="#00C8FF" stroke-width="8" stroke-opacity="0.4" stroke-linecap="round"/>
  </g>
  <path d="M256 468 C172 441 96 374 92 288" stroke="#00C8FF" stroke-width="6" stroke-opacity="0.18" fill="none" stroke-linecap="round"/>
</svg>
