<svg width="280" height="64" viewBox="0 0 280 64" fill="none" xmlns="http://www.w3.org/2000/svg">
  <path d="M24 3 L42 10 L42 26 C42 35 34 42 24 46 C14 42 6 35 6 26 L6 10 Z"
        transform="translate(8,8)"
        fill="none" stroke="#060D1A" stroke-width="1.5"/>
  <path d="M24 6 L39 12 L39 26 C39 33.5 32.5 40 24 43.5 C15.5 40 9 33.5 9 26 L9 12 Z"
        transform="translate(8,8)"
        fill="none" stroke="#060D1A" stroke-width="0.5" stroke-opacity="0.5"/>
  <path d="M 17 30 L 17 26 L 22 26 L 22 22 L 17 22 L 17 18 L 31 18 L 31 22 L 26 22 L 26 26 L 31 26 L 31 30 Z"
        transform="translate(8,8)"
        fill="#060D1A"/>
  <circle cx="25" cy="26" r="2" fill="#060D1A"/>
  <circle cx="39" cy="26" r="2" fill="#060D1A"/>
  <circle cx="25" cy="38" r="2" fill="#060D1A"/>
  <circle cx="39" cy="38" r="2" fill="#060D1A"/>
  <text font-family="Inter, -apple-system, BlinkMacSystemFont, 'Segoe UI', system-ui, sans-serif"
        font-weight="800" font-size="26" letter-spacing="-0.5" fill="#060D1A">
    <tspan x="72" y="38">CyberStep</tspan>
  </text>
  <text x="72" y="53"
        font-family="Inter, -apple-system, BlinkMacSystemFont, 'Segoe UI', system-ui, sans-serif"
        font-weight="500" font-size="10" letter-spacing="3"
        fill="#060D1A" opacity="0.65">.IO</text>
</svg>
