<svg xmlns="http://www.w3.org/2000/svg" viewBox="0 0 400 500">
  
  <defs>
    <radialGradient id="bodyGrad" cx="42%" cy="32%" r="62%">
      <stop offset="0%" stop-color="#1A4A6B"/>
      <stop offset="100%" stop-color="#060D1A"/>
    </radialGradient>
    <radialGradient id="eyeL" cx="38%" cy="30%" r="58%">
      <stop offset="0%" stop-color="#FFFFFF"/>
      <stop offset="55%" stop-color="#00C8FF"/>
      <stop offset="100%" stop-color="#0066AA"/>
    </radialGradient>
    <radialGradient id="eyeR" cx="38%" cy="30%" r="58%">
      <stop offset="0%" stop-color="#FFFFFF"/>
      <stop offset="55%" stop-color="#00C8FF"/>
      <stop offset="100%" stop-color="#0066AA"/>
    </radialGradient>
    <radialGradient id="shieldG" cx="50%" cy="28%" r="70%">
      <stop offset="0%" stop-color="#F5C842"/>
      <stop offset="100%" stop-color="#C47800"/>
    </radialGradient>
    
      
      
    
    
      
      
    
    
      
    
    
  </defs>
  <circle cx="200" cy="180" r="130" fill="#00C8FF" opacity="0.04"/>
  
  <rect x="138" y="395" width="38" height="50" rx="19" fill="url(#bodyGrad)" stroke="#00C8FF" stroke-width="2"/>
  <ellipse cx="143" cy="447" rx="27" ry="12" fill="#0A1E30" stroke="#00C8FF" stroke-width="1.5"/>
  <rect x="224" y="395" width="38" height="50" rx="19" fill="url(#bodyGrad)" stroke="#00C8FF" stroke-width="2"/>
  <ellipse cx="257" cy="447" rx="27" ry="12" fill="#0A1E30" stroke="#00C8FF" stroke-width="1.5"/>
  <ellipse cx="200" cy="472" rx="85" ry="12" fill="#00C8FF" opacity="0.1"/>
  
  <path d="M125 255 Q78 258 64 280 Q54 298 68 308 Q82 318 96 300 Q108 282 118 268" fill="url(#bodyGrad)" stroke="#00C8FF" stroke-width="2.5"/>
  <circle cx="62" cy="314" r="22" fill="url(#bodyGrad)" stroke="#00C8FF" stroke-width="2"/>
  
  <path d="M45 310 Q35 298 42 288 Q48 280 56 286" fill="none" stroke="#00C8FF" stroke-width="3" stroke-linecap="round"/>
  
  <path d="M275 258 Q318 264 328 290 Q335 310 318 316 Q302 322 294 302 Q287 284 278 270" fill="url(#bodyGrad)" stroke="#00C8FF" stroke-width="2.5"/>
  <circle cx="324" cy="322" r="20" fill="url(#bodyGrad)" stroke="#00C8FF" stroke-width="2"/>
  
  <rect x="110" y="188" width="180" height="215" rx="60" fill="url(#bodyGrad)" stroke="#00C8FF" stroke-width="2.5"/>
  
  <rect x="138" y="268" width="124" height="88" rx="16" fill="#091520" stroke="#00C8FF" stroke-width="1.5"/>
  
  <line x1="152" y1="286" x2="248" y2="286" stroke="#00C8FF" stroke-width="1" opacity="0.4"/>
  <line x1="152" y1="299" x2="232" y2="299" stroke="#00C8FF" stroke-width="1" opacity="0.3"/>
  <line x1="152" y1="312" x2="240" y2="312" stroke="#00C8FF" stroke-width="1" opacity="0.4"/>
  <circle cx="240" cy="286" r="4" fill="#2ECC71"/>
  
  <g transform="translate(174,223)">
    <path d="M26 0 Q46 7 46 7 L46 28 Q46 44 26 53 Q6 44 6 28 L6 7Z" fill="url(#shieldG)" stroke="#FFF8E0" stroke-width="1.5"/>
    <text x="26" y="36" font-family="Arial Black,Arial" font-size="22" font-weight="900" fill="#060D1A" text-anchor="middle">S</text>
  </g>
  
  <rect x="152" y="270" width="96" height="84" rx="14" fill="#030C15" stroke="#00C8FF" stroke-width="1"/>
  <rect x="152" y="295" width="96" height="3" rx="1" fill="#00C8FF" opacity="0.8"/>
  
  <line x1="158" y1="282" x2="240" y2="282" stroke="#00C8FF" stroke-width="1" opacity="0.5"/>
  <line x1="158" y1="310" x2="240" y2="310" stroke="#00C8FF" stroke-width="1" opacity="0.3"/>
  <line x1="158" y1="325" x2="220" y2="325" stroke="#00C8FF" stroke-width="1" opacity="0.4"/>
  <line x1="158" y1="340" x2="235" y2="340" stroke="#00C8FF" stroke-width="1" opacity="0.3"/>
  <text x="200" y="358" font-family="Courier New,monospace" font-size="8" fill="#00C8FF" text-anchor="middle" opacity="0.8">SCANNING...</text>
  
  <g transform="translate(174,223)">
    <path d="M26 0 Q46 7 46 7 L46 28 Q46 44 26 53 Q6 44 6 28 L6 7Z" fill="url(#shieldG)" stroke="#FFF8E0" stroke-width="1.5"/>
    <text x="26" y="36" font-family="Arial Black,Arial" font-size="22" font-weight="900" fill="#060D1A" text-anchor="middle">S</text>
  </g>
  
  <line x1="200" y1="55" x2="200" y2="25" stroke="#00C8FF" stroke-width="3" stroke-linecap="round"/>
  <circle cx="200" cy="18" r="10" fill="#00C8FF" stroke="#FFF8E0" stroke-width="1.5"/>
  <circle cx="200" cy="18" r="16" fill="none" stroke="#00C8FF" stroke-width="1.5" opacity="0.35"/><circle cx="200" cy="18" r="22" fill="none" stroke="#00C8FF" stroke-width="1" opacity="0.15"/>
  
  <circle cx="96" cy="158" r="14" fill="#0A1E30" stroke="#00C8FF" stroke-width="2"/>
  <circle cx="96" cy="158" r="7" fill="#00C8FF" opacity="0.6"/>
  <circle cx="304" cy="158" r="14" fill="#0A1E30" stroke="#00C8FF" stroke-width="2"/>
  <circle cx="304" cy="158" r="7" fill="#00C8FF" opacity="0.6"/>
  <circle cx="200" cy="165" r="105" fill="url(#bodyGrad)" stroke="#00C8FF" stroke-width="2.5"/>
  
  <path d="M133 124 Q163 114 190 124" fill="none" stroke="#00C8FF" stroke-width="4" stroke-linecap="round"/>
  <path d="M210 118 Q237 106 267 116" fill="none" stroke="#00C8FF" stroke-width="4" stroke-linecap="round"/>
  
  <circle cx="163" cy="158" r="34" fill="#081828" stroke="#00C8FF" stroke-width="2"/>
  <circle cx="237" cy="158" r="38" fill="#081828" stroke="#00C8FF" stroke-width="2"/>
  <circle cx="163" cy="158" r="22" fill="url(#eyeL)"/>
  <circle cx="237" cy="158" r="28" fill="url(#eyeR)"/>
  <circle cx="165" cy="156" r="10" fill="#002A3D"/>
  <circle cx="240" cy="155" r="13" fill="#002A3D"/>
  <circle cx="170" cy="150" r="5" fill="white" opacity="0.9"/>
  <circle cx="246" cy="148" r="6" fill="white" opacity="0.9"/>
  
  <path d="M172 200 Q200 215 228 200" fill="none" stroke="#00C8FF" stroke-width="4" stroke-linecap="round"/>
  
  <circle cx="290" cy="105" r="28" fill="#0D2035" stroke="#00C8FF" stroke-width="1.5"/>
  <text x="290" y="114" font-family="Arial Black" font-size="26" font-weight="900" fill="#00C8FF" text-anchor="middle">?</text>
  
  <circle cx="290" cy="105" r="38" fill="none" stroke="#00C8FF" stroke-width="1" opacity="0.3" stroke-dasharray="4,4"/>
  
  <rect x="80" y="418" width="240" height="48" rx="12" fill="#060D1A" stroke="#00C8FF" stroke-width="1.5"/>
  <text x="200" y="436" font-family="Arial,sans-serif" font-size="10" fill="#8896A8" text-anchor="middle" letter-spacing="2">DURUM</text>
  <text x="200" y="456" font-family="Arial Black,Arial" font-size="14" font-weight="900" fill="#00C8FF" text-anchor="middle">Tarama Yapılıyor... 🔍</text>
</svg>