<svg xmlns="http://www.w3.org/2000/svg" viewBox="0 0 400 500">
  
  <defs>
    <radialGradient id="bodyGrad" cx="42%" cy="32%" r="62%">
      <stop offset="0%" stop-color="#1A4A6B"/>
      <stop offset="100%" stop-color="#060D1A"/>
    </radialGradient>
    <radialGradient id="eyeL" cx="38%" cy="30%" r="58%">
      <stop offset="0%" stop-color="#FFFFFF"/>
      <stop offset="55%" stop-color="#00C8FF"/>
      <stop offset="100%" stop-color="#0066AA"/>
    </radialGradient>
    <radialGradient id="eyeR" cx="38%" cy="30%" r="58%">
      <stop offset="0%" stop-color="#FFFFFF"/>
      <stop offset="55%" stop-color="#00C8FF"/>
      <stop offset="100%" stop-color="#0066AA"/>
    </radialGradient>
    <radialGradient id="shieldG" cx="50%" cy="28%" r="70%">
      <stop offset="0%" stop-color="#F5C842"/>
      <stop offset="100%" stop-color="#C47800"/>
    </radialGradient>
    
      
      
    
    
      
      
    
    
      
    
    
  </defs>
  
  <circle cx="200" cy="180" r="130" fill="#2ECC71" opacity="0.05"/>
  
  <rect x="138" y="395" width="38" height="50" rx="19" fill="url(#bodyGrad)" stroke="#00C8FF" stroke-width="2"/>
  <ellipse cx="143" cy="447" rx="27" ry="12" fill="#0A1E30" stroke="#00C8FF" stroke-width="1.5"/>
  <rect x="224" y="395" width="38" height="50" rx="19" fill="url(#bodyGrad)" stroke="#00C8FF" stroke-width="2"/>
  <ellipse cx="257" cy="447" rx="27" ry="12" fill="#0A1E30" stroke="#00C8FF" stroke-width="1.5"/>
  <ellipse cx="200" cy="472" rx="85" ry="12" fill="#00C8FF" opacity="0.1"/>
  
  <path d="M125 255 Q72 240 60 200 Q52 170 72 160 Q92 150 102 175 Q110 195 122 215" fill="url(#bodyGrad)" stroke="#00C8FF" stroke-width="2.5" stroke-linejoin="round"/>
  <circle cx="66" cy="155" r="22" fill="url(#bodyGrad)" stroke="#2ECC71" stroke-width="2.5"/>
  
  <line x1="66" y1="133" x2="58" y2="115" stroke="#00C8FF" stroke-width="3" stroke-linecap="round"/>
  <line x1="66" y1="133" x2="74" y2="115" stroke="#00C8FF" stroke-width="3" stroke-linecap="round"/>
  <line x1="66" y1="133" x2="52" y2="120" stroke="#00C8FF" stroke-width="2" stroke-linecap="round" opacity="0.5"/>
  
  <path d="M275 255 Q325 265 335 305 Q342 330 322 337 Q302 344 292 320 Q285 302 277 282" fill="url(#bodyGrad)" stroke="#00C8FF" stroke-width="2.5"/>
  <circle cx="328" cy="342" r="22" fill="url(#bodyGrad)" stroke="#00C8FF" stroke-width="2"/>
  
  <rect x="110" y="188" width="180" height="215" rx="60" fill="url(#bodyGrad)" stroke="#00C8FF" stroke-width="2.5"/>
  
  <rect x="138" y="268" width="124" height="88" rx="16" fill="#091520" stroke="#00C8FF" stroke-width="1.5"/>
  
  <line x1="152" y1="286" x2="248" y2="286" stroke="#00C8FF" stroke-width="1" opacity="0.4"/>
  <line x1="152" y1="299" x2="232" y2="299" stroke="#00C8FF" stroke-width="1" opacity="0.3"/>
  <line x1="152" y1="312" x2="240" y2="312" stroke="#00C8FF" stroke-width="1" opacity="0.4"/>
  <circle cx="240" cy="286" r="4" fill="#2ECC71"/>
  
  <g transform="translate(174,223)">
    <path d="M26 0 Q46 7 46 7 L46 28 Q46 44 26 53 Q6 44 6 28 L6 7Z" fill="url(#shieldG)" stroke="#FFF8E0" stroke-width="1.5"/>
    <text x="26" y="36" font-family="Arial Black,Arial" font-size="22" font-weight="900" fill="#060D1A" text-anchor="middle">S</text>
  </g>
  
  <rect x="155" y="335" width="8" height="14" rx="2" fill="#2ECC71" opacity="0.8"/>
  <rect x="168" y="326" width="8" height="23" rx="2" fill="#2ECC71" opacity="0.9"/>
  <rect x="181" y="318" width="8" height="31" rx="2" fill="#2ECC71"/>
  <rect x="194" y="322" width="8" height="27" rx="2" fill="#2ECC71" opacity="0.95"/>
  <rect x="207" y="320" width="8" height="29" rx="2" fill="#2ECC71" opacity="0.9"/>
  
  <line x1="200" y1="55" x2="200" y2="25" stroke="#00C8FF" stroke-width="3" stroke-linecap="round"/>
  <circle cx="200" cy="18" r="10" fill="#2ECC71" stroke="#FFF8E0" stroke-width="1.5"/>
  <circle cx="200" cy="18" r="16" fill="none" stroke="#2ECC71" stroke-width="1.5" opacity="0.35"/><circle cx="200" cy="18" r="22" fill="none" stroke="#2ECC71" stroke-width="1" opacity="0.15"/>
  
  <circle cx="96" cy="158" r="14" fill="#0A1E30" stroke="#00C8FF" stroke-width="2"/>
  <circle cx="96" cy="158" r="7" fill="#00C8FF" opacity="0.6"/>
  <circle cx="304" cy="158" r="14" fill="#0A1E30" stroke="#00C8FF" stroke-width="2"/>
  <circle cx="304" cy="158" r="7" fill="#00C8FF" opacity="0.6"/>
  <circle cx="200" cy="165" r="105" fill="url(#bodyGrad)" stroke="#00C8FF" stroke-width="2.5"/>
  
  <path d="M133 122 Q163 108 192 120" fill="none" stroke="#2ECC71" stroke-width="4" stroke-linecap="round"/>
  <path d="M208 120 Q237 108 267 122" fill="none" stroke="#2ECC71" stroke-width="4" stroke-linecap="round"/>
  
  <circle cx="163" cy="158" r="34" fill="#081828" stroke="#00C8FF" stroke-width="2"/>
  <circle cx="237" cy="158" r="34" fill="#081828" stroke="#00C8FF" stroke-width="2"/>
  <circle cx="163" cy="158" r="24" fill="url(#eyeL)"/>
  <circle cx="237" cy="158" r="24" fill="url(#eyeR)"/>
  <circle cx="163" cy="155" r="11" fill="#002A3D"/>
  <circle cx="237" cy="155" r="11" fill="#002A3D"/>
  <circle cx="169" cy="149" r="5" fill="white" opacity="0.92"/>
  <circle cx="243" cy="149" r="5" fill="white" opacity="0.92"/>
  <circle cx="160" cy="158" r="2.5" fill="white" opacity="0.45"/>
  <circle cx="234" cy="158" r="2.5" fill="white" opacity="0.45"/>
  
  <path d="M158 200 Q200 228 242 200" fill="none" stroke="#2ECC71" stroke-width="5" stroke-linecap="round"/>
  
  <ellipse cx="140" cy="195" rx="16" ry="9" fill="#2ECC71" opacity="0.25"/>
  <ellipse cx="260" cy="195" rx="16" ry="9" fill="#2ECC71" opacity="0.25"/>
  
  <text x="42" y="100" font-size="22" opacity="0.7">⭐</text>
  <text x="318" y="90" font-size="20" opacity="0.65">✨</text>
  <text x="330" y="160" font-size="16" opacity="0.5">⭐</text>
  
  <rect x="80" y="418" width="240" height="48" rx="12" fill="#060D1A" stroke="#2ECC71" stroke-width="1.5"/>
  <text x="200" y="436" font-family="Arial,sans-serif" font-size="10" fill="#8896A8" text-anchor="middle" letter-spacing="2">DURUM</text>
  <text x="200" y="456" font-family="Arial Black,Arial" font-size="15" font-weight="900" fill="#2ECC71" text-anchor="middle">Harika! Güvendesiniz ✓</text>
</svg>