<svg xmlns="http://www.w3.org/2000/svg" viewBox="0 0 400 500" width="400" height="500">
  <defs>
    <radialGradient id="bodyGrad" cx="45%" cy="35%" r="60%">
      <stop offset="0%" stop-color="#1A4A6B"/>
      <stop offset="100%" stop-color="#060D1A"/>
    </radialGradient>
    <radialGradient id="eyeGlowL" cx="40%" cy="35%" r="55%">
      <stop offset="0%" stop-color="#FFFFFF"/>
      <stop offset="60%" stop-color="#00C8FF"/>
      <stop offset="100%" stop-color="#0088BB"/>
    </radialGradient>
    <radialGradient id="eyeGlowR" cx="40%" cy="35%" r="55%">
      <stop offset="0%" stop-color="#FFFFFF"/>
      <stop offset="60%" stop-color="#00C8FF"/>
      <stop offset="100%" stop-color="#0088BB"/>
    </radialGradient>
    <radialGradient id="shieldGrad" cx="50%" cy="30%" r="70%">
      <stop offset="0%" stop-color="#F5C842"/>
      <stop offset="100%" stop-color="#D4880A"/>
    </radialGradient>
    <radialGradient id="bellyGrad" cx="50%" cy="40%" r="60%">
      <stop offset="0%" stop-color="#0D2535"/>
      <stop offset="100%" stop-color="#091520"/>
    </radialGradient>
    
      
      
    
    
      
      
    
    
      
    
  </defs>

  
  <ellipse cx="200" cy="478" rx="90" ry="14" fill="#00C8FF" opacity="0.12"/>

  
  
  <rect x="138" y="392" width="38" height="52" rx="19" fill="url(#bodyGrad)" stroke="#00C8FF" stroke-width="2"/>
  
  <ellipse cx="143" cy="448" rx="28" ry="14" fill="#0A1E30" stroke="#00C8FF" stroke-width="1.5"/>
  
  <rect x="224" y="392" width="38" height="52" rx="19" fill="url(#bodyGrad)" stroke="#00C8FF" stroke-width="2"/>
  
  <ellipse cx="257" cy="448" rx="28" ry="14" fill="#0A1E30" stroke="#00C8FF" stroke-width="1.5"/>

  
  
  <path d="M125 250 Q72 265 68 310 Q66 338 85 345 Q105 352 115 328 Q120 310 130 295" fill="url(#bodyGrad)" stroke="#00C8FF" stroke-width="2.5" stroke-linejoin="round"/>
  
  <circle cx="80" cy="352" r="22" fill="url(#bodyGrad)" stroke="#00C8FF" stroke-width="2"/>
  
  <circle cx="62" cy="340" r="9" fill="#0D2535" stroke="#00C8FF" stroke-width="1.5"/>
  <circle cx="60" cy="355" r="9" fill="#0D2535" stroke="#00C8FF" stroke-width="1.5"/>
  <circle cx="63" cy="370" r="9" fill="#0D2535" stroke="#00C8FF" stroke-width="1.5"/>

  
  <path d="M275 250 Q328 260 338 305 Q345 335 325 342 Q305 350 295 325 Q288 308 278 290" fill="url(#bodyGrad)" stroke="#00C8FF" stroke-width="2.5" stroke-linejoin="round"/>
  
  <circle cx="322" cy="348" r="22" fill="url(#bodyGrad)" stroke="#00C8FF" stroke-width="2"/>

  
  <g transform="translate(295,295) rotate(15)">
    <path d="M25 0 Q48 8 48 8 L48 32 Q48 52 25 62 Q2 52 2 32 L2 8 Q2 8 25 0Z" fill="url(#shieldGrad)" stroke="#FFF8E0" stroke-width="1.5"/>
    <path d="M25 10 Q40 16 40 16 L40 33 Q40 48 25 56 Q10 48 10 33 L10 16 Q10 16 25 10Z" fill="#D4880A" opacity="0.5"/>
    
    <rect x="17" y="30" width="16" height="13" rx="3" fill="#060D1A"/>
    <path d="M19 30 Q19 22 25 22 Q31 22 31 30" fill="none" stroke="#060D1A" stroke-width="3" stroke-linecap="round"/>
    <circle cx="25" cy="37" r="2.5" fill="#F5A623"/>
  </g>

  
  <rect x="110" y="185" width="180" height="220" rx="60" fill="url(#bodyGrad)" stroke="#00C8FF" stroke-width="2.5"/>

  
  <rect x="138" y="265" width="124" height="90" rx="16" fill="url(#bellyGrad)" stroke="#00C8FF" stroke-width="1.5"/>
  
  <line x1="152" y1="283" x2="248" y2="283" stroke="#00C8FF" stroke-width="1" opacity="0.4"/>
  <line x1="152" y1="296" x2="230" y2="296" stroke="#00C8FF" stroke-width="1" opacity="0.3"/>
  <line x1="152" y1="309" x2="240" y2="309" stroke="#00C8FF" stroke-width="1" opacity="0.4"/>
  <line x1="152" y1="322" x2="218" y2="322" stroke="#00C8FF" stroke-width="1" opacity="0.3"/>
  
  <circle cx="240" cy="283" r="4" fill="#2ECC71"/>
  <circle cx="228" cy="296" r="3" fill="#F5A623"/>
  
  <rect x="155" y="332" width="8" height="16" rx="2" fill="#00C8FF" opacity="0.7"/>
  <rect x="168" y="325" width="8" height="23" rx="2" fill="#00C8FF" opacity="0.9"/>
  <rect x="181" y="318" width="8" height="30" rx="2" fill="#2ECC71" opacity="0.9"/>
  <rect x="194" y="330" width="8" height="18" rx="2" fill="#F5A623" opacity="0.8"/>
  <rect x="207" y="322" width="8" height="26" rx="2" fill="#00C8FF" opacity="0.7"/>

  
  <circle cx="200" cy="165" r="105" fill="url(#bodyGrad)" stroke="#00C8FF" stroke-width="2.5"/>

  
  <ellipse cx="172" cy="108" rx="38" ry="22" fill="white" opacity="0.05" transform="rotate(-20,172,108)"/>

  
  <line x1="200" y1="60" x2="200" y2="30" stroke="#00C8FF" stroke-width="3" stroke-linecap="round"/>
  <circle cx="200" cy="22" r="10" fill="#F5A623" stroke="#FFF8E0" stroke-width="1.5"/>
  
  <circle cx="200" cy="22" r="16" fill="none" stroke="#F5A623" stroke-width="1.5" opacity="0.35"/>
  <circle cx="200" cy="22" r="22" fill="none" stroke="#F5A623" stroke-width="1" opacity="0.15"/>

  
  <circle cx="96" cy="160" r="14" fill="#0A1E30" stroke="#00C8FF" stroke-width="2"/>
  <circle cx="96" cy="160" r="7" fill="#00C8FF" opacity="0.6"/>
  <circle cx="304" cy="160" r="14" fill="#0A1E30" stroke="#00C8FF" stroke-width="2"/>
  <circle cx="304" cy="160" r="7" fill="#00C8FF" opacity="0.6"/>

  
  
  <circle cx="163" cy="158" r="34" fill="#081828" stroke="#00C8FF" stroke-width="2"/>
  <circle cx="237" cy="158" r="34" fill="#081828" stroke="#00C8FF" stroke-width="2"/>
  
  <circle cx="163" cy="158" r="24" fill="url(#eyeGlowL)"/>
  <circle cx="237" cy="158" r="24" fill="url(#eyeGlowR)"/>
  
  <circle cx="166" cy="156" r="11" fill="#003A52"/>
  <circle cx="240" cy="156" r="11" fill="#003A52"/>
  
  <circle cx="172" cy="150" r="5" fill="white" opacity="0.9"/>
  <circle cx="246" cy="150" r="5" fill="white" opacity="0.9"/>
  <circle cx="160" cy="160" r="2.5" fill="white" opacity="0.5"/>
  <circle cx="234" cy="160" r="2.5" fill="white" opacity="0.5"/>

  
  <path d="M138 128 Q163 116 188 126" fill="none" stroke="#00C8FF" stroke-width="4" stroke-linecap="round"/>
  <path d="M212 126 Q237 116 262 128" fill="none" stroke="#00C8FF" stroke-width="4" stroke-linecap="round"/>

  
  <path d="M168 198 Q200 220 232 198" fill="none" stroke="#00C8FF" stroke-width="4" stroke-linecap="round"/>
  
  <ellipse cx="148" cy="192" rx="14" ry="8" fill="#F5A623" opacity="0.22"/>
  <ellipse cx="252" cy="192" rx="14" ry="8" fill="#F5A623" opacity="0.22"/>

  
  <g transform="translate(174,220)">
    <path d="M26 0 Q46 7 46 7 L46 28 Q46 44 26 53 Q6 44 6 28 L6 7 Q6 7 26 0Z" fill="url(#shieldGrad)" stroke="#FFF8E0" stroke-width="1.5"/>
    <path d="M26 8 Q38 13 38 13 L38 29 Q38 41 26 48 Q14 41 14 29 L14 13 Q14 13 26 8Z" fill="#B8700A" opacity="0.45"/>
    
    <text x="26" y="36" font-family="Arial Black, Arial" font-size="22" font-weight="900" fill="#060D1A" text-anchor="middle">S</text>
  </g>

  
  <rect x="90" y="415" width="220" height="48" rx="12" fill="#060D1A" stroke="#00C8FF" stroke-width="1.5"/>
  <text x="200" y="432" font-family="Arial, sans-serif" font-size="11" fill="#8896A8" text-anchor="middle" letter-spacing="3">POWERED BY</text>
  <text x="200" y="453" font-family="Arial Black, Arial" font-size="16" font-weight="900" fill="#00C8FF" text-anchor="middle" letter-spacing="1">CYBERSTEP.IO</text>

</svg>